<svg xmlns="http://www.w3.org/2000/svg" xmlns:xlink="http://www.w3.org/1999/xlink" viewBox="0,0,256,256" width="48px" height="48px" fill-rule="nonzero" fill="none"><g fill="none" fill-rule="nonzero" stroke="none" stroke-width="1" stroke-linecap="butt" stroke-linejoin="miter" stroke-miterlimit="10" stroke-dasharray="" stroke-dashoffset="0" font-family="none" font-weight="none" font-size="none" text-anchor="none" style="mix-blend-mode: normal"><g transform="scale(5.33333,5.33333)"><path d="M40,20c0.391,-1.735 -0.092,-3.78 -2.5,-6c-3.914,3.543 -2.795,7.227 -1.5,9c0,0 -0.166,1 -4,1c-3.834,0 -30,0 -30,0c0,0 -1.833,16 16,16c15.593,0 19.973,-12.003 20.828,-15.076c0.354,0.048 0.751,0.079 1.172,0.076c2.147,-0.017 4.93,-1.171 6,-5.484c-2.838,-0.983 -4.661,-0.538 -6,0.484z" fill="#03a9f4"></path><path d="M2.165,28c0.735,4.739 3.818,12 15.835,12c12.185,0 17.523,-7.33 19.682,-12z" fill="#0288d1"></path><path d="M19.812,39.938c-0.92,-0.322 -5.072,-1.09 -5.812,-6.938c-4.209,1.863 -7.938,1.375 -9.579,1.008c2.162,3.229 6.17,5.992 13.579,5.992c0.623,0 1.224,-0.024 1.812,-0.062z" fill="#81d4fa"></path><path d="M18,30c-1.10457,0 -2,0.89543 -2,2c0,1.10457 0.89543,2 2,2c1.10457,0 2,-0.89543 2,-2c0,-1.10457 -0.89543,-2 -2,-2z" fill="#ffffff"></path><path d="M14.914,33.597c0.224,0.505 0.02,1.162 -0.51,1.318c-3.301,0.973 -6.146,1.102 -8.297,1.102c-0.644,-0.619 -1.194,-1.279 -1.656,-1.963c2.585,0 6.71,-0.12 9.144,-0.966c0.522,-0.182 1.095,0.002 1.319,0.509zM2,27c0,0 1.875,0.125 3,-1c1.875,1.688 5.94,1.088 7,0c1.063,1.688 6.938,1.375 8,0c1.25,1.438 6.625,1.75 8,0c0.479,1.461 6.819,1.874 8,0c1.061,1.088 5.063,1.938 7.311,0c0.564,1.188 2.689,1 2.689,1v1h-44M17,32c0,0.552 0.448,1 1,1c0.552,0 1,-0.448 1,-1c0,-0.552 -0.448,-1 -1,-1c-0.552,0 -1,0.448 -1,1z" fill="#37474f"></path><path d="M11,24h-5v-5h5zM21,19h-5v5h5zM31,19h-5v5h5zM16,14h-5v5h5zM26,14h-5v5h5z" fill="#01579b"></path><path d="M16,24h-5v-5h5zM26,19h-5v5h5zM26,9h-5v5h5zM21,14h-5v5h5z" fill="#0288d1"></path></g></g><g fill="#d1fa00" fill-rule="nonzero" stroke="none" stroke-width="1" stroke-linecap="butt" stroke-linejoin="miter" stroke-miterlimit="10" stroke-dasharray="" stroke-dashoffset="0" font-family="none" font-weight="none" font-size="none" text-anchor="none" style="mix-blend-mode: normal"><g><path d="M96.025,248.86167h-8.4v-30.34h8.56c2.64,0 4.97333,0.58333 7,1.75c2.03333,1.16667 3.6,2.82667 4.7,4.98c1.10667,2.15333 1.66667,4.62667 1.68,7.42v0v1.94c0,2.86 -0.55333,5.36667 -1.66,7.52c-1.1,2.15333 -2.67667,3.80667 -4.73,4.96c-2.04667,1.15333 -4.43,1.74333 -7.15,1.77zM96.295,221.82167h-4.67v23.77h4.21c3.08,0 5.48,-0.96 7.2,-2.88c1.71333,-1.91333 2.57,-4.64333 2.57,-8.19v0v-1.77c0,-3.44 -0.81,-6.11667 -2.43,-8.03c-1.61333,-1.90667 -3.90667,-2.87333 -6.88,-2.9zM113.975,237.65167v-0.27c0,-2.20667 0.43667,-4.19333 1.31,-5.96c0.86667,-1.76667 2.07333,-3.12667 3.62,-4.08c1.55333,-0.96 3.32,-1.44 5.3,-1.44v0c3.07333,0 5.55667,1.06333 7.45,3.19c1.9,2.12 2.85,4.94667 2.85,8.48v0v0.27c0,2.19333 -0.42,4.16 -1.26,5.9c-0.84,1.74667 -2.04333,3.10667 -3.61,4.08c-1.56,0.96667 -3.35333,1.45 -5.38,1.45v0c-3.06,0 -5.53667,-1.06 -7.43,-3.18c-1.9,-2.12667 -2.85,-4.94 -2.85,-8.44zM117.855,237.84167v0c0,2.5 0.58,4.50667 1.74,6.02c1.16,1.51333 2.71333,2.27 4.66,2.27v0c1.95333,0 3.50667,-0.76667 4.66,-2.3c1.15333,-1.54 1.73,-3.69 1.73,-6.45v0c0,-2.47333 -0.58667,-4.47667 -1.76,-6.01c-1.17333,-1.53333 -2.73333,-2.3 -4.68,-2.3v0c-1.9,0 -3.43333,0.75667 -4.6,2.27c-1.16667,1.51333 -1.75,3.68 -1.75,6.5zM148.375,246.13167v0c1.37333,0 2.57667,-0.41667 3.61,-1.25c1.02667,-0.83333 1.59333,-1.87667 1.7,-3.13v0h3.65c-0.06667,1.29333 -0.51,2.52333 -1.33,3.69c-0.82,1.16667 -1.91667,2.09667 -3.29,2.79c-1.36667,0.69333 -2.81333,1.04 -4.34,1.04v0c-3.06667,0 -5.50667,-1.02333 -7.32,-3.07c-1.81333,-2.04667 -2.72,-4.85 -2.72,-8.41v0v-0.64c0,-2.19333 0.40333,-4.14667 1.21,-5.86c0.80667,-1.70667 1.96333,-3.03 3.47,-3.97c1.50667,-0.94667 3.28667,-1.42 5.34,-1.42v0c2.52667,0 4.62667,0.75667 6.3,2.27c1.67333,1.51333 2.56667,3.48 2.68,5.9v0h-3.65c-0.10667,-1.46 -0.65667,-2.66 -1.65,-3.6c-0.99333,-0.93333 -2.22,-1.4 -3.68,-1.4v0c-1.96,0 -3.47667,0.70333 -4.55,2.11c-1.08,1.40667 -1.62,3.44333 -1.62,6.11v0v0.73c0,2.6 0.53667,4.6 1.61,6c1.06667,1.40667 2.59333,2.11 4.58,2.11zM175.815,248.86167l-7.86,-10.44l-2.41,2.52v7.92h-3.86v-32h3.86v19.35l2.06,-2.48l7.02,-7.41h4.69l-8.77,9.41l9.79,13.13zM192.225,249.27167v0c-3.05333,0 -5.53667,-1.00333 -7.45,-3.01c-1.92,-2.00667 -2.88,-4.69 -2.88,-8.05v0v-0.71c0,-2.23333 0.42667,-4.23 1.28,-5.99c0.85333,-1.75333 2.05,-3.12667 3.59,-4.12c1.53333,-0.99333 3.19667,-1.49 4.99,-1.49v0c2.92667,0 5.20333,0.96333 6.83,2.89c1.62667,1.93333 2.44,4.7 2.44,8.3v0v1.6h-15.27c0.05333,2.22 0.7,4.01667 1.94,5.39c1.24667,1.36667 2.82667,2.05 4.74,2.05v0c1.36,0 2.51333,-0.28 3.46,-0.84c0.94667,-0.55333 1.77333,-1.28667 2.48,-2.2v0l2.35,1.83c-1.88667,2.9 -4.72,4.35 -8.5,4.35zM191.755,229.07167v0c-1.56,0 -2.86667,0.56333 -3.92,1.69c-1.05333,1.13333 -1.70667,2.72 -1.96,4.76v0h11.29v-0.29c-0.10667,-1.96 -0.63333,-3.47667 -1.58,-4.55c-0.94667,-1.07333 -2.22333,-1.61 -3.83,-1.61zM216.375,226.19167v3.58c-0.58,-0.09333 -1.21333,-0.14 -1.9,-0.14v0c-2.52667,0 -4.24,1.07667 -5.14,3.23v0v16h-3.86v-22.54h3.75l0.07,2.6c1.26,-2.01333 3.05,-3.02 5.37,-3.02v0c0.75333,0 1.32333,0.09667 1.71,0.29z"></path></g></g></svg>