<svg xmlns="http://www.w3.org/2000/svg" xmlns:xlink="http://www.w3.org/1999/xlink" viewBox="0,0,256,256" width="48px" height="48px" fill-rule="none" fill="none"><g fill="none" fill-rule="none" stroke="none" stroke-width="1" stroke-linecap="butt" stroke-linejoin="miter" stroke-miterlimit="10" stroke-dasharray="" stroke-dashoffset="0" font-family="none" font-weight="none" font-size="none" text-anchor="none" style="mix-blend-mode: normal"><g transform="scale(5.33333,5.33333)"><path d="M17.071,14.306l-3.06,0.496l-2.792,1.222l-2.371,1.489l-2.257,2.749l-1.274,1.348l-1.233,0.454l-0.326,-0.795l0.57,-0.821l0.128,-1.158l0.382,0.015l0.417,0.38l-0.113,-1.18l-0.462,-0.31l0.014,-0.45l-1.095,0.619l-0.992,1.168l-0.207,1.044l0.424,0.836l0.396,1.421l0.805,0.38l0.846,-0.041l0.803,-0.466l-0.535,2.711l0.535,3.016l-0.589,1.393l-1.93,2.076l0.343,1.24l0.914,1.437l1.724,1.211l0.915,0.125l1.017,0.034l-0.634,2.6l2.333,0.954l2.907,0.382l0.994,-0.649l0.077,-1.756l1.109,-1.833l0.076,-1.451l2.677,0.191l2.486,-0.229l-2.486,1.489l0.421,1.794l1.568,2.443l1.53,0.649l1.224,-0.496l0.497,-0.993l2.562,-1.947l0.497,0.42l4.016,0.153l0.803,-0.649l0.076,-1.145l-0.268,-0.496l-0.191,-3.092l-1.339,-2.672l0.229,-1.184l0.803,0.42l2.257,2.1l1.109,0.076l1.224,-0.496l1.224,-0.916l0.612,-1.985l3.595,0.229l2.18,-0.84l1.759,-1.642l1.262,-2.367l0.306,-2.787l-0.268,-3.245l-0.688,-2.901l-0.688,-0.916l-0.956,-0.305l-1.683,1.833l-1.53,0.534l-1.339,-2.214l-1.339,-1.222l-0.727,-0.458l-2.907,-2.405l-2.333,-1.26l-2.333,-0.191l-2.715,0.458l-2.371,0.878l-1.645,1.336l-1.3,1.565l-1.339,0.382l-2.331,2.213z" fill="#ffff00" fill-rule="evenodd"></path><path d="M8.198,21.197c-2.621,3.051 -2.039,6.752 -1.312,10.378c-0.388,-0.978 -0.775,-1.955 -1.163,-2.933c-0.143,-0.896 -0.286,-1.792 -0.428,-2.689c0.041,-0.917 0.082,-1.833 0.122,-2.75c0.367,-0.876 0.735,-1.752 1.102,-2.627c0.551,-0.815 1.102,-1.629 1.653,-2.444c0.857,-0.713 1.714,-1.426 2.571,-2.139c0.939,-0.387 1.877,-0.774 2.816,-1.161c1.102,-0.143 2.204,-0.285 3.305,-0.428c-1.02,1.161 -2.04,2.322 -3.061,3.483c-2.458,0.796 -3.908,1.332 -5.605,3.31" fill="#fffdbb" fill-rule="evenodd"></path><path d="M20.535,11.9c-1.822,1.774 -2.817,3.113 -3.977,5.19c-0.829,1.486 -1.76,2.918 -2.632,4.383c-0.441,0.742 -0.483,1.364 -0.615,2.219c-0.428,-0.509 -0.857,-1.018 -1.285,-1.528c0.204,-0.611 0.408,-1.222 0.612,-1.833c0.694,-1.242 1.387,-2.485 2.081,-3.727c1.469,-1.446 2.938,-2.892 4.407,-4.338c0.471,-0.122 0.94,-0.244 1.409,-0.366M29.534,7.5c-1.459,0.546 -3.883,0.726 -4.051,2.398c-0.12,1.187 0.09,1.784 0.807,3.04c-1.771,-1.829 -2.209,-1.546 -5.631,-0.978c0.49,-0.693 0.979,-1.385 1.469,-2.078c0.857,-0.529 1.714,-1.059 2.571,-1.589c1.102,-0.244 2.204,-0.489 3.305,-0.733c0.509,-0.019 1.02,-0.039 1.53,-0.06" fill="#fffdbb" fill-rule="evenodd"></path><path d="M33.56,30.116c0.486,0.299 0.475,0.516 0.394,0.721c0.383,-0.153 0.766,-0.306 1.15,-0.459c0.248,-0.333 0.497,-0.665 0.745,-0.998c0.184,-0.474 0.369,-0.948 0.553,-1.422c-0.236,-0.177 -0.471,-0.353 -0.706,-0.53c-1.029,0.131 -2.058,0.262 -3.088,0.393c-0.077,0.208 -0.153,0.415 -0.23,0.623c0.022,0.295 0.044,0.59 0.066,0.885c0.098,0.175 0.197,0.35 0.296,0.525c0.153,0.077 0.307,0.153 0.46,0.23c0.12,0.01 0.24,0.021 0.36,0.032" fill="#cccc00" fill-rule="evenodd"></path><path d="M33.273,24.845c-1.548,0.446 -1.536,0.569 -1.993,2.102c0.604,-0.967 1.05,-1.455 1.993,-2.102M43.564,13.375c-0.275,0.127 -0.543,0.188 -0.715,0.439c-0.37,0.541 -0.688,0.996 -1.3,1.375c-0.308,0.191 -0.627,0.315 -0.954,0.417c-0.271,0.084 -0.434,0.009 -0.665,0.175c0.137,0.024 0.274,0.048 0.411,0.072c0.302,0 0.604,0 0.906,0c0.372,-0.23 0.745,-0.459 1.117,-0.689c0.219,-0.23 0.438,-0.459 0.657,-0.689c0.181,-0.366 0.362,-0.733 0.543,-1.1M18.91,16.804c-0.609,1.663 -1.141,3.089 -2.063,4.595c1.182,-1.271 1.898,-2.352 2.575,-3.789c0.263,-0.558 0.313,-1.213 1.045,-0.97c0.033,0.557 0.151,1.115 0.184,1.672c0.396,-2.832 1.512,-4.016 4.106,-5.115c-0.734,0.088 -1.467,0.175 -2.201,0.262c-0.69,0.153 -1.38,0.306 -2.069,0.459c-0.339,0.492 -0.679,0.984 -1.018,1.476c-0.187,0.47 -0.373,0.94 -0.559,1.41M23.936,16.738c0.559,2.628 1.365,5.151 1.715,7.821c0.227,1.735 0.252,2.569 -0.622,4.065c-0.956,-0.062 -1.549,0.046 -2.474,0.348c-3.68,1.204 -5.791,2.975 -8.271,-0.593c0.792,0.372 1.583,0.745 2.375,1.117c0.564,-0.111 1.129,-0.221 1.693,-0.332c0.996,-0.579 1.993,-1.159 2.989,-1.738c0.777,-0.153 1.555,-0.306 2.332,-0.459c0.252,-1.049 0.504,-2.099 0.756,-3.148c-0.186,-1.388 -0.372,-2.776 -0.558,-4.164c-0.022,-0.656 -0.044,-1.311 -0.066,-1.967c0.043,-0.316 0.087,-0.633 0.131,-0.95M30.276,33.001c-0.309,2.135 0.712,3.283 0.289,3.873c-0.12,0.167 -0.282,0.458 -0.463,0.538c-0.647,0.285 -1.536,-0.053 -1.6,0.114c-0.712,0 -1.423,0 -2.135,0c-0.285,-0.12 -0.569,-0.241 -0.854,-0.361c0.438,-0.514 0.876,-1.027 1.314,-1.541c0.427,-0.929 0.854,-1.858 1.281,-2.787c0.274,-0.94 0.548,-1.88 0.821,-2.82c0.142,0 0.285,0 0.427,0c0.306,0.995 0.613,1.99 0.92,2.984" fill="#c0ca33" fill-rule="evenodd"></path><path d="M26.687,26.793c0.173,0.97 0.475,1.2 0.932,2.139c-0.304,1.531 -0.793,3.352 -1.381,4.703c-0.248,0.57 -0.448,0.884 -0.885,1.324c-0.738,0.744 -1.484,1.392 -2.321,2.037c-0.602,0.464 -1.023,0.231 -1.766,0.126c-0.316,0.572 -0.403,0.89 -0.985,1.18c-0.895,0.447 -1.696,-0.516 -2.398,-1.082c0.507,0.791 1.014,1.581 1.521,2.372c0.35,0.328 0.701,0.656 1.051,0.984c0.296,0.044 0.591,0.087 0.887,0.131c0.394,-0.241 0.788,-0.481 1.182,-0.721c0.208,-0.393 0.416,-0.787 0.624,-1.18c0.438,-0.328 0.876,-0.656 1.314,-0.984c0.537,-0.459 1.073,-0.918 1.61,-1.377c0.339,-0.481 0.679,-0.962 1.018,-1.443c0.306,-0.568 0.613,-1.137 0.92,-1.705c0.394,-1.18 0.788,-2.361 1.183,-3.541c0.033,-0.448 0.066,-0.896 0.098,-1.344c-0.493,-0.219 -0.985,-0.437 -1.478,-0.656c-0.362,-0.34 -0.765,-0.624 -1.126,-0.963M14.903,33.624c1.658,0 3.409,-0.092 4.927,-0.787c0.43,-0.644 0.854,-1.169 1.38,-1.738c-0.479,0.902 -0.629,1.412 -0.756,2.426c-0.164,0.24 -0.328,0.481 -0.493,0.721c-1.248,0.033 -2.496,0.066 -3.745,0.098c-0.405,-0.044 -0.81,-0.087 -1.215,-0.131c-0.044,-0.044 -0.088,-0.087 -0.131,-0.131c0.011,-0.152 0.022,-0.305 0.033,-0.458M14.673,32.477c-0.043,-0.388 -0.086,-0.776 -0.129,-1.164c-0.283,1.702 -0.215,2.842 -1,4.367c-0.586,0.678 -1.308,1.295 -2.134,1.625c0.07,0.418 0.091,0.679 0.05,0.986c-0.146,1.102 -2.355,0.615 -3.263,0.571c1.458,0.375 2.916,0.749 4.374,1.124c0.328,-0.131 0.657,-0.262 0.985,-0.393c0.11,-0.634 0.219,-1.268 0.328,-1.902c0.307,-0.568 0.613,-1.137 0.92,-1.705c0.055,-0.35 0.11,-0.7 0.164,-1.049c-0.098,-0.821 -0.196,-1.641 -0.295,-2.46M12.209,22.87c-0.046,0.827 -0.099,1.173 0.266,1.903c0.465,0.929 1.036,1.802 1.541,2.72c0.055,-0.612 0.109,-1.224 0.164,-1.836c-0.657,-0.929 -1.314,-1.859 -1.971,-2.787M5.466,29.121c-0.142,0.302 -0.284,0.604 -0.427,0.906c0.391,1.316 0.739,2.149 1.484,3.299c-0.13,0.466 -0.227,0.67 -0.526,1.049c-0.656,-0.101 -1.238,-0.13 -1.903,-0.128c0.734,0.568 1.467,1.137 2.201,1.705c0.361,-0.066 0.723,-0.131 1.084,-0.197c0.361,-0.361 0.723,-0.721 1.084,-1.082c-0.515,-0.798 -1.029,-1.596 -1.544,-2.394c-0.483,-1.052 -0.968,-2.105 -1.453,-3.158M43.569,12.94c0.447,2.007 1.023,3.858 0.969,5.913c-0.066,2.521 -0.558,5.706 -2.898,7.226c-2.621,1.703 -5.697,0.897 -8.573,0.168c1.172,0.481 2.343,0.962 3.515,1.443c1.095,0.055 2.19,0.109 3.285,0.164c0.745,-0.219 1.489,-0.437 2.234,-0.656c0.58,-0.481 1.161,-0.962 1.741,-1.443c0.438,-0.918 0.876,-1.836 1.314,-2.754c0.164,-1.06 0.328,-2.12 0.493,-3.181c-0.131,-1.038 -0.263,-2.077 -0.394,-3.115c-0.241,-1.027 -0.482,-2.055 -0.723,-3.082c-0.321,-0.228 -0.642,-0.456 -0.963,-0.683M4.458,18.92c-1.19,0.773 -1.657,1.112 -1.527,2.545c0.119,0.429 0.237,0.858 0.356,1.287c0.168,0.113 0.336,0.227 0.504,0.34c0.208,0.069 0.415,0.138 0.623,0.207c0.375,-0.089 0.751,-0.178 1.127,-0.266c0.193,-0.597 0.385,-1.194 0.578,-1.79c-0.534,0.261 -1.067,0.523 -1.601,0.784c-0.124,0 -0.247,0 -0.371,0c-0.138,-0.212 -0.277,-0.424 -0.415,-0.636c0.168,-0.247 0.336,-0.493 0.504,-0.74c0.089,-0.469 0.178,-0.937 0.267,-1.406c0.114,0.035 0.227,0.069 0.341,0.103c0.138,0.109 0.277,0.217 0.415,0.326c-0.02,-0.247 -0.04,-0.493 -0.059,-0.74c-0.094,-0.158 -0.188,-0.316 -0.282,-0.473c-0.094,-0.079 -0.188,-0.158 -0.282,-0.237c-0.059,0.232 -0.118,0.464 -0.178,0.696M31.151,7.631c1.056,0.979 2.352,1.83 3.196,3.026c0.327,0.463 0.69,0.7 -0.006,1.354c0.735,-0.21 1.008,-0.187 1.596,-0.116c1.07,0.129 2.073,1.648 2.137,2.736c-0.013,0.102 -0.297,0.333 -1.125,0.561c-0.016,0.032 -0.467,-0.062 -0.456,-0.031c0.086,0.235 0.201,0.271 0.376,0.381c0.038,0.261 0.063,0.664 0.241,0.95c0.521,-0.009 1.03,0.047 1.539,0.148c0.172,0.284 0.146,0.568 0.131,0.852c0.197,-0.033 0.394,-0.066 0.591,-0.098c-0.055,-0.448 -0.109,-0.896 -0.164,-1.344c0.175,-0.295 0.35,-0.59 0.526,-0.885c-0.252,-0.568 -0.504,-1.137 -0.756,-1.705c-0.482,-0.459 -0.964,-0.918 -1.445,-1.377c-0.046,-0.002 -0.093,-0.005 -0.139,-0.007c-0.542,-0.332 -1.084,-0.664 -1.625,-0.996c-0.884,-0.722 -1.767,-1.443 -2.651,-2.165c-0.654,-0.428 -1.31,-0.856 -1.966,-1.284M32.93,15.71c-0.056,0.097 -0.14,0.253 -0.248,0.36c0.44,0.415 0.657,0.693 0.814,1.281c-0.497,0.246 -0.994,0.493 -1.492,0.739c-0.421,0.403 -0.841,0.805 -1.262,1.208c-0.554,-0.298 -0.692,-0.526 -0.96,-1.093c-0.312,0.082 -0.608,0.162 -0.865,0.067c0.163,0.001 0.264,-0.04 0.427,-0.14c0.268,-0.278 0.535,-0.555 0.803,-0.833c0.473,-0.357 0.946,-0.715 1.419,-1.072c0.309,-0.101 0.619,-0.201 0.928,-0.302c0.119,-0.049 0.318,-0.166 0.436,-0.215" fill="#c0ca33" fill-rule="evenodd"></path><path d="M34.302,17.191c-1.582,0.85 -3.097,1.705 -3.906,3.32c0.001,-2.05 2.062,-2.952 3.906,-3.32M30.083,13.159c-1.175,0.799 -2.005,2.413 -1.901,3.985c-0.383,-1.361 -0.247,-2.648 0.928,-3.588c0.198,-0.096 0.396,-0.192 0.595,-0.289c0.125,-0.035 0.252,-0.071 0.378,-0.108" fill="#c0ca33" fill-rule="evenodd"></path><path d="M21.397,13.389l-0.097,0.009c-0.643,0.06 -0.796,0.074 -1.307,0.578c-0.811,0.801 -1.57,3.507 -1.794,4.482c-0.011,0.05 0.017,0.101 0.066,0.117c0.01,0.003 0.021,0.005 0.031,0.005c0.039,0 0.075,-0.023 0.091,-0.06c0.053,-0.124 0.119,-0.279 0.193,-0.456c0.429,-1.02 1.227,-2.919 1.832,-3.436c0.05,-0.043 0.096,-0.081 0.138,-0.115c-0.316,0.625 -0.265,0.95 -0.108,1.954c0.007,0.048 0.049,0.084 0.098,0.084h0.001c0.049,0 0.091,-0.037 0.097,-0.086c0.141,-1.073 0.493,-1.532 1.078,-2.294l0.122,-0.159c0.732,-0.185 1.421,-0.407 2.166,-0.697c0.047,-0.018 0.073,-0.068 0.061,-0.117c-0.012,-0.049 -0.058,-0.078 -0.108,-0.075c-0.844,0.096 -1.706,0.186 -2.56,0.266zM30.319,13.073c-0.017,-0.048 -0.065,-0.075 -0.118,-0.063c-1.978,0.495 -2.626,1.305 -2.309,2.89c0.009,0.046 0.05,0.08 0.096,0.08h0.001c0.047,0 0.087,-0.032 0.097,-0.078c0.204,-0.901 0.557,-1.928 2.182,-2.706c0.047,-0.022 0.068,-0.075 0.051,-0.123zM34.292,17.092c-0.364,0 -0.767,0.064 -1.174,0.188c-0.024,-0.127 -0.065,-0.25 -0.121,-0.368c-0.142,-0.297 -0.373,-0.536 -0.662,-0.688c0.236,-0.132 0.484,-0.284 0.685,-0.466c0.036,-0.033 0.043,-0.088 0.016,-0.129c-0.027,-0.041 -0.081,-0.058 -0.125,-0.035c-0.297,0.137 -0.623,0.2 -0.939,0.26c-0.4,0.076 -0.813,0.155 -1.156,0.387c-0.304,0.205 -0.665,0.649 -1.014,1.079c-0.264,0.325 -0.537,0.661 -0.764,0.863c-0.036,0.032 -0.044,0.085 -0.019,0.126c0.025,0.041 0.077,0.057 0.121,0.041c0.295,-0.114 0.606,-0.298 0.969,-0.575c0.021,0.154 0.066,0.305 0.134,0.447c0.126,0.264 0.321,0.481 0.568,0.634c-0.173,0.244 -0.31,0.504 -0.409,0.776c-0.016,0.045 0.002,0.096 0.044,0.12c0.016,0.009 0.033,0.014 0.05,0.014c0.029,0 0.056,-0.012 0.076,-0.035c0.958,-1.133 2.375,-2.047 3.79,-2.443c0.048,-0.013 0.078,-0.06 0.072,-0.108c-0.006,-0.049 -0.048,-0.086 -0.097,-0.087c-0.014,-0.001 -0.03,-0.001 -0.045,-0.001z" fill="#424242" fill-rule="nonzero"></path><path d="M44.715,13.354c-0.225,-0.43 -0.917,-0.868 -1.512,-0.957c-0.371,-0.058 -0.681,0.026 -0.89,0.237c-0.209,0.211 -0.387,0.472 -0.561,0.725c-0.204,0.297 -0.415,0.604 -0.668,0.82c-0.308,0.263 -0.679,0.411 -1.038,0.554l-0.081,0.033c-0.278,-0.715 -0.67,-1.346 -1.297,-2.092c-0.453,-0.537 -0.873,-0.8 -1.455,-1.164c-0.789,-0.493 -1.446,-1.068 -2.141,-1.676c-0.297,-0.26 -0.604,-0.529 -0.922,-0.791c-2.497,-2.056 -5.022,-2.919 -9.881,-0.879c-1.891,0.795 -2.793,1.857 -3.938,3.383c-0.687,0.041 -1.181,0.19 -1.918,0.839c-0.506,0.446 -1.003,0.923 -1.518,1.458c-3.638,0.58 -5.935,1.274 -8.374,3.433c-0.936,0.828 -1.677,1.786 -2.267,2.929l-0.042,0.047c-0.485,0.535 -0.986,1.087 -1.631,1.336c-0.176,0.068 -0.315,0.119 -0.354,0.102c-0.032,-0.014 -0.07,-0.108 -0.123,-0.247c0.495,-0.419 0.539,-1.106 0.58,-1.771l0.007,-0.106c0.158,0.055 0.265,0.221 0.387,0.409c0.057,0.088 0.116,0.179 0.183,0.263c0.024,0.03 0.064,0.044 0.1,0.035c0.037,-0.009 0.067,-0.038 0.075,-0.075c0.134,-0.597 0.249,-1.638 -0.427,-2.064c0.034,-0.086 0.068,-0.173 0.102,-0.261c0.073,-0.187 0.149,-0.378 0.22,-0.579c0.012,-0.034 0.005,-0.07 -0.018,-0.097c-0.023,-0.027 -0.058,-0.04 -0.093,-0.034c-0.703,0.122 -2.717,1.339 -3.14,2.719c-0.192,0.627 -0.037,1.193 0.461,1.683c0.125,0.507 0.219,0.826 0.375,1.15c0.432,0.895 1.358,1.051 2.143,0.81c-0.2,1.01 -0.229,2.096 -0.101,3.586c0.031,0.363 0.084,0.742 0.157,1.125l-0.548,1.49l-1.387,1.368c-0.059,0.059 -0.113,0.11 -0.161,0.156c-0.398,0.383 -0.478,0.487 -0.368,1.147c0.157,0.932 0.612,1.797 1.317,2.503c0.691,0.692 2.272,1.836 3.527,1.459c-0.107,0.354 -0.235,0.695 -0.382,1.016c-0.224,0.491 -0.253,0.917 -0.087,1.268c0.338,0.71 1.391,0.983 2.32,1.225c0.11,0.029 0.218,0.057 0.322,0.085l0.127,0.034c0.979,0.266 2.802,0.762 3.74,0.224c0.272,-0.156 0.452,-0.389 0.533,-0.692c0.178,-0.66 0.211,-1.022 0.148,-1.662c0.295,-0.653 0.415,-0.829 0.63,-1.144l0.102,-0.149c0.416,-0.616 0.386,-0.864 0.297,-1.609c-0.012,-0.102 -0.026,-0.212 -0.042,-0.326c1.097,0.154 2.196,0.178 3.342,0.07c-0.233,0.126 -0.481,0.253 -0.766,0.399l-0.127,0.065c-0.296,0.152 -0.486,0.38 -0.566,0.678c-0.217,0.814 0.418,1.938 0.994,2.826c0.83,1.274 1.641,2.332 2.835,2.332c0.402,0 0.848,-0.12 1.352,-0.392c0.495,-0.268 0.659,-0.554 0.866,-0.916c0.07,-0.122 0.149,-0.26 0.248,-0.409c0.187,-0.115 0.733,-0.565 1.311,-1.041c0.228,-0.188 0.454,-0.375 0.649,-0.533c0.294,0.275 0.792,0.331 1.496,0.382c0.253,0.018 0.985,0.02 1.57,0.02c0.158,0 0.306,0 0.428,0c0.16,0 0.252,0 0.347,0.001c1.092,0 1.865,-0.136 1.961,-1.479c0.045,-0.619 0.013,-0.771 -0.28,-1.294l-0.053,-1.973c-0.02,-0.761 -0.167,-1.234 -0.466,-1.947c-0.102,-0.241 -0.186,-0.468 -0.269,-0.691c-0.135,-0.363 -0.262,-0.707 -0.451,-1.083c0.03,-0.172 0.055,-0.348 0.075,-0.524l1.047,1.006c0.724,0.696 1.354,1.302 2.465,1.302c0.049,0 0.099,-0.001 0.15,-0.003c1.29,-0.061 2.676,-1.084 3.026,-2.233l0.327,-1.075c2.071,0.374 4.07,0.155 5.496,-0.604c2.099,-1.119 3.425,-3.406 3.734,-6.442c0.221,-2.173 -0.221,-5.792 -1.229,-7.718zM4.793,18.786c0.002,-0.006 0.003,-0.013 0.005,-0.019c0.071,0.078 0.112,0.182 0.138,0.309c-0.057,-0.036 -0.119,-0.062 -0.189,-0.071c0.012,-0.08 0.028,-0.152 0.046,-0.219zM40.631,15.335c0.289,-0.102 0.588,-0.207 0.837,-0.404c0.309,-0.243 0.562,-0.568 0.808,-0.882c0.181,-0.232 0.368,-0.472 0.572,-0.669c0.116,-0.112 0.251,-0.148 0.413,-0.116c0.066,0.014 0.132,0.038 0.198,0.071c-0.506,0.994 -1.264,1.761 -2.197,2.221c-0.445,0.22 -0.75,0.187 -1.211,0.136c-0.038,-0.004 -0.077,-0.008 -0.117,-0.013c0.158,-0.154 0.407,-0.242 0.697,-0.344zM3.494,22.458c-0.164,-0.341 -0.259,-0.683 -0.382,-1.126c-0.004,-0.016 -0.012,-0.03 -0.024,-0.042c-0.273,-0.283 -0.387,-0.608 -0.34,-0.966c0.104,-0.793 0.931,-1.561 1.528,-1.984c-0.067,0.156 -0.119,0.293 -0.159,0.432c-0.101,0.347 -0.116,0.674 -0.13,0.991c-0.026,0.575 -0.05,1.071 -0.593,1.505c-0.036,0.029 -0.048,0.08 -0.027,0.122c0.054,0.109 0.101,0.21 0.144,0.302c0.311,0.668 0.462,0.884 1.345,0.53c0.245,-0.098 0.475,-0.226 0.696,-0.388c-0.083,0.228 -0.162,0.464 -0.239,0.706c-0.015,0.045 -0.028,0.09 -0.042,0.136c-0.542,0.221 -1.45,0.464 -1.777,-0.218zM7.549,35.203c-0.129,0.173 -0.302,0.264 -0.528,0.279c-0.022,0.001 -0.044,0.002 -0.067,0.002c-0.777,0 -1.883,-0.859 -2.281,-1.264c-0.558,-0.569 -0.927,-1.246 -1.013,-1.856c-0.053,-0.38 -0.033,-0.4 0.217,-0.649l1.41,-1.424c0.01,-0.01 0.017,-0.022 0.022,-0.035l0.187,-0.499c0.621,1.997 1.589,3.696 2.315,4.796c-0.056,0.23 -0.123,0.467 -0.262,0.65zM29.958,33.379l0.06,2.114c0,0.016 0.005,0.032 0.013,0.047c0.219,0.384 0.246,0.449 0.209,0.871c-0.076,0.854 -0.327,0.898 -1.098,0.876c-0.085,-0.001 -0.227,-0.003 -0.401,-0.005c-0.566,-0.006 -1.515,-0.016 -1.797,-0.04c-0.382,-0.033 -0.645,-0.066 -0.81,-0.129c0.856,-0.752 2.151,-3.077 2.416,-3.913c0.118,-0.371 0.241,-0.722 0.361,-1.065c0.137,-0.393 0.268,-0.77 0.386,-1.153c0.072,0.244 0.148,0.495 0.259,0.759c0.269,0.635 0.384,1.004 0.402,1.638zM45.073,21.033c-0.216,1.997 -1.181,4.54 -3.242,5.687c-2.429,1.354 -5.23,0.593 -7.891,-0.302c-0.45,-0.152 -0.782,-0.363 -1.167,-0.608l-0.184,-0.117c-0.034,-0.021 -0.078,-0.021 -0.11,0.003c-0.033,0.023 -0.049,0.064 -0.04,0.103c0.153,0.686 0.158,1.227 0.018,1.702c-0.198,0.667 -0.497,1.674 -0.13,2.297c0.15,0.254 0.397,0.422 0.735,0.496c0.499,0.111 0.731,0.089 1.414,-0.262c0.044,-0.023 0.065,-0.075 0.048,-0.122c-0.017,-0.047 -0.069,-0.075 -0.115,-0.063c-0.529,0.119 -0.783,0.087 -1.137,0.023c-0.164,-0.031 -0.294,-0.102 -0.392,-0.219c0.103,0.031 0.227,0.061 0.379,0.097c0.931,0.222 1.883,-0.199 2.079,-0.925c0.033,-0.124 0.054,-0.229 0.074,-0.332c0.036,-0.186 0.071,-0.362 0.181,-0.642c0.13,0.039 0.265,0.076 0.402,0.11l-0.31,1.007c-0.271,0.882 -1.352,1.644 -2.325,1.644c-0.011,0 -0.021,0 -0.032,0c-0.839,-0.015 -1.397,-0.513 -1.988,-1.04l-0.124,-0.11c-0.445,-0.395 -0.873,-0.774 -1.299,-1.149c-0.01,-0.009 -0.022,-0.016 -0.035,-0.02c-1.271,-0.401 -2.154,-0.844 -3.15,-1.58c-0.041,-0.031 -0.098,-0.025 -0.132,0.012c-0.034,0.037 -0.035,0.094 -0.003,0.133c0.784,0.919 1.314,1.412 2.334,1.849c-0.119,1.108 -0.436,2.02 -0.771,2.984c-0.132,0.379 -0.268,0.772 -0.399,1.191c-0.214,0.69 -1.892,3.408 -2.32,3.655c-0.169,0.097 -0.742,0.558 -1.349,1.045c-0.623,0.5 -1.268,1.017 -1.463,1.133c-0.011,0.006 -0.021,0.015 -0.029,0.026c-0.076,0.102 -0.151,0.213 -0.226,0.326c-0.209,0.315 -0.425,0.64 -0.729,0.8c-1.261,0.665 -2.073,-0.62 -2.789,-1.754c-0.585,-0.929 -0.828,-1.601 -0.722,-1.998c0.036,-0.136 0.115,-0.235 0.24,-0.301c0.698,-0.369 1.103,-0.635 1.776,-1.076l0.083,-0.054c0.056,0.085 0.121,0.168 0.183,0.249c0.069,0.089 0.14,0.18 0.195,0.27c0.024,0.04 0.073,0.057 0.118,0.042c0.044,-0.016 0.071,-0.06 0.066,-0.106l-0.084,-0.671c-0.046,-0.37 -0.05,-0.684 -0.016,-1.122l0.093,-1.185c0.004,-0.051 -0.031,-0.097 -0.082,-0.106c-0.05,-0.011 -0.099,0.021 -0.113,0.071c-0.056,0.195 -0.142,0.396 -0.226,0.591c-0.086,0.2 -0.175,0.407 -0.241,0.636c-0.035,0.122 -0.067,0.231 -0.088,0.331c-1.675,0.334 -3.302,0.354 -4.974,0.065c-0.106,-0.61 -0.234,-1.243 -0.345,-1.709c-0.011,-0.048 -0.057,-0.086 -0.105,-0.076c-0.049,0.004 -0.088,0.044 -0.091,0.093c-0.024,0.379 -0.02,1.231 -0.017,1.982c0.001,0.312 0.003,0.607 0.002,0.848c-0.002,0.646 -0.032,0.834 -0.344,1.347c-0.091,0.151 -0.167,0.267 -0.24,0.377c-0.169,0.259 -0.329,0.504 -0.634,1.11c-0.008,0.016 -0.012,0.034 -0.01,0.051c0.037,0.565 0.031,0.899 -0.105,1.38c-0.08,0.282 -0.598,0.652 -3.172,-0.051l-0.212,-0.056c-0.589,-0.153 -1.479,-0.386 -1.718,-0.854c-0.081,-0.159 -0.082,-0.334 -0.003,-0.536c0.357,-0.914 0.587,-1.87 0.768,-3.198c0.003,-0.025 -0.003,-0.05 -0.017,-0.07c-1.661,-2.388 -2.788,-5.142 -3.016,-7.368c-0.191,-1.869 -0.096,-3.075 0.338,-4.3c0.737,-2.079 1.716,-3.605 3.082,-4.802c1.859,-1.628 3.6,-2.395 6.569,-2.875c-0.505,0.57 -1.007,1.163 -1.536,1.786l-0.471,0.554c-0.802,0.943 -1.284,1.919 -1.751,2.863c-0.708,1.434 -0.664,2.007 0.247,3.228c0.103,0.138 0.199,0.265 0.29,0.386c0.583,0.771 0.938,1.24 1.226,2.09c-0.279,0.587 -0.379,1.089 -0.47,1.855c-0.003,0.029 0.006,0.057 0.025,0.079c0.977,1.066 1.688,1.781 2.646,2.008c0.987,0.234 1.751,0.16 2.554,-0.25c0.369,-0.188 0.737,-0.39 1.094,-0.586c1.433,-0.787 2.787,-1.53 4.389,-1.569c0.039,-0.001 0.075,-0.025 0.09,-0.062c0.957,-2.349 0.853,-4.319 0.401,-6.554c-0.297,-1.473 -0.426,-2.876 -0.528,-4.529c-0.003,-0.049 -0.041,-0.088 -0.09,-0.093c-0.052,-0.006 -0.094,0.028 -0.105,0.076c-0.396,1.662 -0.449,3.1 -0.172,4.663c0.33,1.858 0.604,3.978 -0.307,5.646c-1.451,0.126 -2.757,0.852 -4.02,1.555c-0.345,0.192 -0.702,0.39 -1.056,0.574c-0.617,0.32 -1.283,0.374 -2.033,0.169c-0.634,-0.174 -1.077,-0.585 -1.818,-1.436c-0.005,-0.82 0.187,-1.199 0.565,-1.943c0.653,-1.285 1.391,-2.499 2.092,-3.619c0.028,-0.045 0.016,-0.103 -0.026,-0.134c-0.042,-0.03 -0.102,-0.023 -0.135,0.017c-0.243,0.293 -0.482,0.573 -0.716,0.847c-0.627,0.734 -1.222,1.429 -1.747,2.209c-0.217,-0.54 -0.499,-0.906 -0.904,-1.434c-0.121,-0.157 -0.251,-0.327 -0.394,-0.521c-0.648,-0.877 -0.684,-1.224 -0.224,-2.188l0.052,-0.109c0.471,-0.986 0.878,-1.837 1.674,-2.695c0.562,-0.606 1.116,-1.25 1.652,-1.874c0.849,-0.987 1.727,-2.008 2.689,-2.942c0.748,-0.727 1.081,-0.774 1.968,-0.902l0.319,-0.047c0.997,-0.151 2.006,-0.345 3.086,-0.596c0.051,-0.012 0.084,-0.061 0.076,-0.113c-0.008,-0.051 -0.055,-0.093 -0.107,-0.083c-0.906,0.084 -1.779,0.121 -2.792,0.149c0.851,-1.083 1.43,-1.76 2.942,-2.415c3.71,-1.609 6.166,-1.946 9.293,0.678c0.225,0.188 0.441,0.375 0.654,0.559c0.479,0.413 0.934,0.806 1.43,1.175c-0.216,0.035 -0.417,0.092 -0.646,0.182c-0.048,0.019 -0.073,0.071 -0.059,0.12c0.015,0.05 0.066,0.083 0.114,0.07c0.372,-0.069 0.811,-0.004 1.231,0.072c0.113,0.073 0.229,0.145 0.349,0.214l0.027,0.016c0.547,0.322 0.848,0.499 1.212,1.005c0.355,0.494 0.658,0.99 0.921,1.51c-0.099,-0.034 -0.187,-0.064 -0.264,-0.086c-0.121,-0.055 -0.248,-0.09 -0.379,-0.102c-0.257,-0.024 -0.514,0.034 -0.723,0.164l-0.027,0.013c-0.287,0.139 -0.768,0.316 -1.094,0.369c-0.045,0.007 -0.079,0.044 -0.083,0.09c-0.004,0.045 0.024,0.087 0.067,0.102c0.135,0.046 0.413,0.077 0.627,0.045c-0.033,0.091 -0.053,0.186 -0.063,0.284c-0.022,0.226 0.021,0.453 0.125,0.654c0.014,0.032 0.029,0.062 0.046,0.09c-0.11,0.043 -0.222,0.089 -0.336,0.139c-0.046,0.02 -0.07,0.071 -0.056,0.119c0.014,0.048 0.058,0.083 0.111,0.07c0.719,-0.109 1.334,-0.123 1.983,-0.044c0.035,0.167 0.069,0.34 0.102,0.516l-0.136,0.011c-0.372,-0.275 -0.794,-0.207 -1.267,-0.101c-1.122,0.255 -1.291,0.78 -1.526,1.505c-0.102,0.315 -0.217,0.671 -0.433,1.068c-0.024,0.045 -0.011,0.102 0.032,0.13c0.042,0.027 0.1,0.021 0.132,-0.019c0.256,-0.313 0.422,-0.634 0.568,-0.918c0.287,-0.558 0.513,-0.999 1.266,-1.177c0.077,-0.018 0.147,-0.037 0.213,-0.056c0.001,0 0.003,0 0.005,-0.001c-0.201,0.171 -0.352,0.378 -0.428,0.593c-0.164,0.461 -0.199,0.886 -0.234,1.297c-0.036,0.436 -0.071,0.848 -0.252,1.283c-0.02,0.049 0,0.104 0.048,0.128c0.047,0.022 0.105,0.006 0.13,-0.04c0.248,-0.429 0.372,-0.858 0.492,-1.273c0.102,-0.353 0.208,-0.717 0.389,-1.087c0.14,-0.284 0.649,-0.71 0.922,-0.715l0.183,-0.004c0.081,0.554 0.108,0.996 0.083,1.349c-0.058,0.8 -0.265,1.948 -0.377,2.355c-0.012,0.046 0.009,0.094 0.052,0.115c0.043,0.022 0.095,0.009 0.123,-0.028c0.357,-0.459 0.542,-1.311 0.705,-2.062c0.029,-0.134 0.057,-0.263 0.085,-0.385c0.171,-0.746 0.163,-1.704 -0.023,-2.697c-0.042,-0.226 -0.03,-0.395 0.025,-0.527c0.102,0.03 0.198,0.061 0.29,0.091c0.449,0.146 0.836,0.271 1.365,0.082c1.103,-0.393 1.819,-1.241 2.187,-2.591c0.207,0.156 0.384,0.377 0.462,0.565c0.762,1.857 1.187,4.938 0.961,7.018z" fill="#424242" fill-rule="nonzero"></path><path d="M32.77,24.84c-0.176,0.034 -0.353,0.068 -0.48,0.089c-0.715,0.12 -0.82,0.311 -0.931,1.011c-0.024,0.153 -0.053,0.324 -0.082,0.496c-0.03,0.174 -0.059,0.349 -0.083,0.505c-0.008,0.051 0.023,0.099 0.073,0.112c0.008,0.002 0.017,0.003 0.025,0.003c0.041,0 0.078,-0.025 0.093,-0.065c0.174,-0.466 0.314,-0.81 0.437,-1.082c0.139,-0.302 0.207,-0.339 0.495,-0.494l0.057,-0.031c0.118,-0.065 0.29,-0.143 0.457,-0.22c0.17,-0.078 0.345,-0.158 0.469,-0.226c0.043,-0.023 0.062,-0.074 0.047,-0.12c-0.016,-0.046 -0.061,-0.073 -0.111,-0.066c-0.122,0.022 -0.294,0.055 -0.466,0.088z" fill="#424242" fill-rule="nonzero"></path><path d="M30.61,18.509c-0.141,-0.295 -0.015,-0.65 0.281,-0.79c0.296,-0.141 0.652,-0.015 0.793,0.28c0.013,0.028 0.024,0.057 0.033,0.085c-0.283,0.209 -0.542,0.456 -0.759,0.742c-0.146,-0.059 -0.276,-0.166 -0.348,-0.317M37.221,15.956c0.024,-0.244 0.232,-0.424 0.477,-0.4c0.244,0.024 0.425,0.242 0.401,0.486c-0.005,0.052 -0.019,0.101 -0.04,0.146c-0.224,0.038 -0.448,0.104 -0.678,0.188c-0.097,-0.1 -0.173,-0.279 -0.16,-0.42" fill="#ffffcc" fill-rule="evenodd"></path></g></g><g fill="#0073fa" fill-rule="nonzero" stroke="none" stroke-width="1" stroke-linecap="butt" stroke-linejoin="miter" stroke-miterlimit="10" stroke-dasharray="" stroke-dashoffset="0" font-family="none" font-weight="none" font-size="none" text-anchor="none" style="mix-blend-mode: normal"><g><path d="M115.195,219.06667v22.75h-3.02v-10.52h-11.47v10.52h-3v-22.75h3v9.78h11.47v-9.78zM133.535,241.81667h-3.03c-0.16667,-0.33333 -0.30333,-0.92667 -0.41,-1.78v0c-1.34,1.39333 -2.94333,2.09 -4.81,2.09v0c-1.66667,0 -3.03333,-0.47 -4.1,-1.41c-1.06667,-0.94667 -1.6,-2.14333 -1.6,-3.59v0c0,-1.76 0.66667,-3.12667 2,-4.1c1.34,-0.97333 3.22333,-1.46 5.65,-1.46v0h2.81v-1.33c0,-1.00667 -0.3,-1.81 -0.9,-2.41c-0.60667,-0.6 -1.49667,-0.9 -2.67,-0.9v0c-1.03333,0 -1.9,0.26 -2.6,0.78c-0.69333,0.52 -1.04,1.15 -1.04,1.89v0h-2.91c0,-0.84 0.3,-1.65333 0.9,-2.44c0.6,-0.78667 1.41333,-1.41 2.44,-1.87c1.02,-0.46 2.14667,-0.69 3.38,-0.69v0c1.94667,0 3.47333,0.48667 4.58,1.46c1.1,0.97333 1.67333,2.31667 1.72,4.03v0v7.78c0,1.55333 0.19667,2.78667 0.59,3.7v0zM125.705,239.61667v0c0.90667,0 1.76667,-0.23667 2.58,-0.71c0.81333,-0.46667 1.4,-1.07333 1.76,-1.82v0v-3.47h-2.26c-3.54,0 -5.31,1.03667 -5.31,3.11v0c0,0.90667 0.3,1.61333 0.9,2.12c0.60667,0.51333 1.38333,0.77 2.33,0.77zM136.765,233.44667v-0.22c0,-2.59333 0.61667,-4.68 1.85,-6.26c1.22667,-1.58 2.83667,-2.37 4.83,-2.37v0c1.97333,0 3.54,0.67667 4.7,2.03v0v-8.81h2.89v24h-2.66l-0.14,-1.81c-1.15333,1.41333 -2.76333,2.12 -4.83,2.12v0c-1.95333,0 -3.55,-0.8 -4.79,-2.4c-1.23333,-1.60667 -1.85,-3.7 -1.85,-6.28zM139.655,233.54667v0c0,1.92 0.39667,3.42 1.19,4.5c0.79333,1.08667 1.88667,1.63 3.28,1.63v0c1.83333,0 3.17333,-0.82333 4.02,-2.47v0v-7.76c-0.86667,-1.6 -2.19667,-2.4 -3.99,-2.4v0c-1.41333,0 -2.51667,0.55 -3.31,1.65c-0.79333,1.09333 -1.19,2.71 -1.19,4.85zM154.755,233.40667v-0.2c0,-1.65333 0.32333,-3.14333 0.97,-4.47c0.65333,-1.32 1.56,-2.34 2.72,-3.06c1.16667,-0.72 2.49333,-1.08 3.98,-1.08v0c2.3,0 4.16333,0.79667 5.59,2.39c1.42,1.59333 2.13,3.71333 2.13,6.36v0v0.2c0,1.64667 -0.31667,3.12333 -0.95,4.43c-0.62667,1.31333 -1.52667,2.33333 -2.7,3.06c-1.17333,0.72667 -2.52,1.09 -4.04,1.09v0c-2.29333,0 -4.15,-0.79667 -5.57,-2.39c-1.42,-1.59333 -2.13,-3.70333 -2.13,-6.33zM157.655,233.54667v0c0,1.88 0.43667,3.38667 1.31,4.52c0.86667,1.13333 2.03,1.7 3.49,1.7v0c1.46667,0 2.63333,-0.57333 3.5,-1.72c0.86667,-1.15333 1.3,-2.76667 1.3,-4.84v0c0,-1.85333 -0.44,-3.35667 -1.32,-4.51c-0.88,-1.14667 -2.05,-1.72 -3.51,-1.72v0c-1.42667,0 -2.57667,0.56667 -3.45,1.7c-0.88,1.13333 -1.32,2.75667 -1.32,4.87zM173.005,233.40667v-0.2c0,-1.65333 0.32333,-3.14333 0.97,-4.47c0.65333,-1.32 1.56,-2.34 2.72,-3.06c1.16667,-0.72 2.49333,-1.08 3.98,-1.08v0c2.3,0 4.16333,0.79667 5.59,2.39c1.42,1.59333 2.13,3.71333 2.13,6.36v0v0.2c0,1.64667 -0.31667,3.12333 -0.95,4.43c-0.62667,1.31333 -1.52667,2.33333 -2.7,3.06c-1.17333,0.72667 -2.52,1.09 -4.04,1.09v0c-2.29333,0 -4.15,-0.79667 -5.57,-2.39c-1.42,-1.59333 -2.13,-3.70333 -2.13,-6.33zM175.905,233.54667v0c0,1.88 0.43667,3.38667 1.31,4.52c0.86667,1.13333 2.03,1.7 3.49,1.7v0c1.46667,0 2.63333,-0.57333 3.5,-1.72c0.86667,-1.15333 1.3,-2.76667 1.3,-4.84v0c0,-1.85333 -0.44,-3.35667 -1.32,-4.51c-0.88,-1.14667 -2.05,-1.72 -3.51,-1.72v0c-1.42667,0 -2.57667,0.56667 -3.45,1.7c-0.88,1.13333 -1.32,2.75667 -1.32,4.87zM206.295,233.28667v0.26c0,2.57333 -0.58667,4.64667 -1.76,6.22c-1.18,1.57333 -2.77333,2.36 -4.78,2.36v0c-2.05333,0 -3.67,-0.65 -4.85,-1.95v0v8.14h-2.89v-23.41h2.64l0.14,1.88c1.18,-1.46 2.81667,-2.19 4.91,-2.19v0c2.03333,0 3.64,0.76667 4.82,2.3c1.18,1.53333 1.77,3.66333 1.77,6.39zM203.405,233.22667v0c0,-1.90667 -0.40333,-3.41333 -1.21,-4.52c-0.81333,-1.10667 -1.93,-1.66 -3.35,-1.66v0c-1.74667,0 -3.06,0.77667 -3.94,2.33v0v8.08c0.86667,1.54 2.19,2.31 3.97,2.31v0c1.38667,0 2.49,-0.55 3.31,-1.65c0.81333,-1.09333 1.22,-2.72333 1.22,-4.89z"></path></g></g></svg>